<?xml version="1.0" encoding="utf-8"?>
<!-- Generator: Adobe Illustrator 20.1.0, SVG Export Plug-In . SVG Version: 6.00 Build 0)  -->
<svg version="1.1" id="Layer_1" xmlns="http://www.w3.org/2000/svg" xmlns:xlink="http://www.w3.org/1999/xlink" x="0px" y="0px"
	 viewBox="0 0 126.3 12.8" style="enable-background:new 0 0 126.3 12.8;" xml:space="preserve">
<style type="text/css">
	.st0{fill:#CCCCCC;}
	.st1{fill:#F2F2F2;}
</style>
<g>
	<path class="st0" d="M33.4,6.4c0-3.2,2.4-5.4,5.5-5.4c2.6,0,3.9,1.4,4.6,2.8l-2.3,1.1c-0.3-0.8-1.2-1.5-2.3-1.5
		c-1.6,0-2.8,1.3-2.8,3s1.2,3,2.8,3c1.1,0,2-0.7,2.3-1.5L43.6,9c-0.7,1.3-2,2.8-4.6,2.8C35.9,11.8,33.4,9.6,33.4,6.4z"/>
	<path class="st0" d="M49.8,1c3.2,0,5.5,2.2,5.5,5.4s-2.4,5.4-5.5,5.4s-5.6-2.2-5.6-5.4S46.6,1,49.8,1z M49.8,3.4
		c-1.7,0-2.8,1.3-2.8,3s1.1,3,2.8,3s2.8-1.3,2.8-3S51.5,3.4,49.8,3.4z"/>
	<path class="st0" d="M57.3,8.1c0.7,0.7,1.9,1.4,3.3,1.4c0.9,0,1.5-0.4,1.5-0.9c0-0.6-0.7-0.8-1.8-1.1c-1.7-0.3-4.1-0.8-4.1-3.2
		c0-1.7,1.5-3.3,4.1-3.3c1.7,0,3.1,0.5,4.2,1.4L63,4.3c-0.9-0.7-2-1.1-2.9-1.1S58.9,3.6,58.9,4c0,0.5,0.6,0.7,1.8,1
		c1.7,0.4,4.1,0.9,4.1,3.2c0,2.1-1.5,3.5-4.3,3.5c-2.1,0-3.6-0.7-4.6-1.7L57.3,8.1z"/>
	<path class="st0" d="M75.2,4.6l-2.6,7h-1.2l-2.6-7v7h-2.7V1.2h3.7L72,7.1l2.2-5.9h3.7v10.4h-2.7V4.6z"/>
	<path class="st0" d="M84.8,1c3.2,0,5.5,2.2,5.5,5.4s-2.4,5.4-5.5,5.4s-5.6-2.2-5.6-5.4S81.6,1,84.8,1z M84.8,3.4
		c-1.7,0-2.8,1.3-2.8,3s1.1,3,2.8,3c1.7,0,2.8-1.3,2.8-3S86.5,3.4,84.8,3.4z"/>
	<path class="st0" d="M92.4,8.1c0.7,0.7,1.9,1.4,3.3,1.4c0.9,0,1.5-0.4,1.5-0.9c0-0.6-0.7-0.8-1.8-1.1c-1.7-0.3-4.1-0.8-4.1-3.2
		c0-1.8,1.5-3.3,4.2-3.3c1.7,0,3.1,0.5,4.2,1.4l-1.5,1.9c-0.9-0.7-2-1.1-2.9-1.1S94.1,3.6,94.1,4c0,0.5,0.6,0.7,1.8,1
		c1.7,0.4,4.1,0.9,4.1,3.2c0,2.1-1.5,3.5-4.3,3.5c-2.1,0-3.6-0.7-4.6-1.7L92.4,8.1z"/>
	<path class="st1" d="M102.3,8.8c0.8,0,1.5,0.7,1.5,1.5s-0.7,1.5-1.5,1.5s-1.5-0.7-1.5-1.5C100.9,9.5,101.5,8.8,102.3,8.8z"/>
	<path class="st1" d="M104.9,1.2h2.7v6.1c0,1.2,0.7,2.1,2.1,2.1s2.1-0.9,2.1-2.1V1.2h2.7v6.2c0,2.6-1.5,4.4-4.8,4.4
		s-4.8-1.8-4.8-4.4L104.9,1.2L104.9,1.2z"/>
	<path class="st1" d="M117.1,8.1c0.7,0.7,1.9,1.4,3.3,1.4c0.9,0,1.5-0.4,1.5-0.9c0-0.6-0.7-0.8-1.8-1.1c-1.7-0.3-4.1-0.8-4.1-3.2
		c0-1.7,1.5-3.3,4.1-3.3c1.7,0,3.1,0.5,4.2,1.4l-1.5,1.9c-0.9-0.7-2-1.1-2.9-1.1s-1.2,0.4-1.2,0.8c0,0.5,0.6,0.7,1.8,1
		c1.7,0.4,4.1,0.9,4.1,3.2c0,2.1-1.5,3.5-4.3,3.5c-2.1,0-3.6-0.7-4.6-1.7L117.1,8.1z"/>
</g>
<g>
	<path class="st1" d="M6.2,1.2c3.1,0,5.3,2.1,5.3,5.2s-2.3,5.2-5.3,5.2c-3.1,0-5.4-2.1-5.4-5.2S3.2,1.2,6.2,1.2z M6.2,3.5
		c-1.7,0-2.7,1.3-2.7,2.9c0,1.6,1.1,2.9,2.7,2.9c1.6,0,2.7-1.3,2.7-2.9C8.9,4.8,7.9,3.5,6.2,3.5z"/>
	<path class="st1" d="M12.9,1.4h2.6v5.9c0,1.2,0.6,2,2,2c1.4,0,2-0.9,2-2V1.4h2.6v5.9c0,2.5-1.4,4.2-4.6,4.2s-4.6-1.8-4.6-4.2V1.4z"
		/>
	<path class="st1" d="M27.9,8h-1.3v3.4H24v-10h5c2.2,0,3.5,1.5,3.5,3.3c0,1.7-1.1,2.7-2,3l2,3.7h-3L27.9,8z M28.6,3.6h-2v2.2h2
		c0.7,0,1.2-0.4,1.2-1.1C29.8,4,29.3,3.6,28.6,3.6z"/>
</g>
</svg>
