<?xml version="1.0" encoding="utf-8"?>
<!-- Generator: Adobe Illustrator 20.1.0, SVG Export Plug-In . SVG Version: 6.00 Build 0)  -->
<svg version="1.1" id="Layer_1" xmlns="http://www.w3.org/2000/svg" xmlns:xlink="http://www.w3.org/1999/xlink" x="0px" y="0px"
	 viewBox="0 0 116.5 12.8" style="enable-background:new 0 0 116.5 12.8;" xml:space="preserve">
<style type="text/css">
	.st0{fill:#F2F2F2;}
	.st1{fill:#CCCCCC;}
</style>
<g>
	<path class="st0" d="M10,4.6l-2.6,7H6.2l-2.6-7v7H0.9V1.2h3.7l2.2,5.9L9,1.2h3.7v10.4H10V4.6z"/>
	<path class="st0" d="M17.4,7.4l-3.9-6.2h3L18.7,5L21,1.2h3l-3.9,6.2v4.2h-2.7V7.4z"/>
	<path class="st1" d="M23.6,6.4C23.6,3.2,26,1,29.1,1c2.6,0,3.9,1.4,4.6,2.8l-2.3,1.1c-0.3-0.8-1.2-1.5-2.3-1.5
		c-1.6,0-2.8,1.3-2.8,3s1.2,3,2.8,3c1.1,0,2-0.7,2.3-1.5L33.8,9c-0.7,1.3-2,2.8-4.6,2.8C26.1,11.8,23.6,9.6,23.6,6.4z"/>
	<path class="st1" d="M40,1c3.2,0,5.5,2.2,5.5,5.4s-2.4,5.4-5.5,5.4s-5.6-2.2-5.6-5.4S36.8,1,40,1z M40,3.4c-1.7,0-2.8,1.3-2.8,3
		s1.1,3,2.8,3s2.8-1.3,2.8-3S41.7,3.4,40,3.4z"/>
	<path class="st1" d="M47.5,8.1c0.7,0.7,1.9,1.4,3.3,1.4c0.9,0,1.5-0.4,1.5-0.9c0-0.6-0.7-0.8-1.8-1.1c-1.7-0.3-4.1-0.8-4.1-3.2
		c0-1.7,1.5-3.3,4.1-3.3c1.7,0,3.1,0.5,4.2,1.4l-1.5,1.9c-0.9-0.7-2-1.1-2.9-1.1S49.1,3.6,49.1,4c0,0.5,0.6,0.7,1.8,1
		C52.6,5.4,55,5.9,55,8.2c0,2.1-1.5,3.5-4.3,3.5c-2.1,0-3.6-0.7-4.6-1.7L47.5,8.1z"/>
	<path class="st1" d="M65.4,4.6l-2.6,7h-1.2l-2.6-7v7h-2.7V1.2H60l2.2,5.9l2.2-5.9h3.7v10.4h-2.7V4.6z"/>
	<path class="st1" d="M75,1c3.2,0,5.5,2.2,5.5,5.4s-2.4,5.4-5.5,5.4s-5.6-2.2-5.6-5.4S71.8,1,75,1z M75,3.4c-1.7,0-2.8,1.3-2.8,3
		s1.1,3,2.8,3c1.7,0,2.8-1.3,2.8-3S76.7,3.4,75,3.4z"/>
	<path class="st1" d="M82.6,8.1c0.7,0.7,1.9,1.4,3.3,1.4c0.9,0,1.5-0.4,1.5-0.9c0-0.6-0.7-0.8-1.8-1.1c-1.7-0.3-4.1-0.8-4.1-3.2
		C81.5,2.5,83,1,85.7,1c1.7,0,3.1,0.5,4.2,1.4l-1.5,1.9c-0.9-0.7-2-1.1-2.9-1.1S84.3,3.6,84.3,4c0,0.5,0.6,0.7,1.8,1
		c1.7,0.4,4.1,0.9,4.1,3.2c0,2.1-1.5,3.5-4.3,3.5c-2.1,0-3.6-0.7-4.6-1.7L82.6,8.1z"/>
	<path class="st0" d="M92.5,8.8c0.8,0,1.5,0.7,1.5,1.5s-0.7,1.5-1.5,1.5S91,11.1,91,10.3C91.1,9.5,91.7,8.8,92.5,8.8z"/>
	<path class="st0" d="M95.1,1.2h2.7v6.1c0,1.2,0.7,2.1,2.1,2.1s2.1-0.9,2.1-2.1V1.2h2.7v6.2c0,2.6-1.5,4.4-4.8,4.4s-4.8-1.8-4.8-4.4
		L95.1,1.2L95.1,1.2z"/>
	<path class="st0" d="M107.3,8.1c0.7,0.7,1.9,1.4,3.3,1.4c0.9,0,1.5-0.4,1.5-0.9c0-0.6-0.7-0.8-1.8-1.1c-1.7-0.3-4.1-0.8-4.1-3.2
		c0-1.7,1.5-3.3,4.1-3.3c1.7,0,3.1,0.5,4.2,1.4L113,4.3c-0.9-0.7-2-1.1-2.9-1.1s-1.2,0.4-1.2,0.8c0,0.5,0.6,0.7,1.8,1
		c1.7,0.4,4.1,0.9,4.1,3.2c0,2.1-1.5,3.5-4.3,3.5c-2.1,0-3.6-0.7-4.6-1.7L107.3,8.1z"/>
</g>
</svg>
